<svg id="Camada_1" data-name="Camada 1" xmlns="http://www.w3.org/2000/svg" viewBox="0 0 45.55 45.55"><defs><style>.cls-1{fill:#fff;}.cls-2{fill:#1f3c8c;}</style></defs><title>ico-wreck</title><rect class="cls-1" x="6.7" y="7.47" width="33.06" height="31.36" transform="translate(22.72 -10.03) rotate(45)"/><path class="cls-2" d="M31.24,18.48a.38.38,0,0,0-.64-.17l-2.37,2.36-2.15-.36-.36-2.16,2.36-2.36a.38.38,0,0,0-.18-.64A4.55,4.55,0,0,0,22.48,21l-6.79,6.79a2,2,0,1,0,2.88,2.87l6.78-6.77a4.57,4.57,0,0,0,5.89-5.44ZM17.13,30a.77.77,0,0,1-.76-.77.76.76,0,0,1,.76-.76.77.77,0,0,1,.77.76A.78.78,0,0,1,17.13,30Z" transform="translate(-0.46 -0.38)"/></svg>