<?xml version="1.0" encoding="utf-8"?>
<!-- Generator: Adobe Illustrator 23.1.0, SVG Export Plug-In . SVG Version: 6.00 Build 0)  -->
<svg version="1.1" id="Camada_1" xmlns="http://www.w3.org/2000/svg" xmlns:xlink="http://www.w3.org/1999/xlink" x="0px" y="0px"
	 viewBox="0 0 47 47" style="enable-background:new 0 0 47 47;" xml:space="preserve">
<style type="text/css">
	.st0{fill:#FFFFFF;}
	.st1{fill:#1F3C8C;}
</style>
<g>
	
		<rect x="6.8" y="7.49" transform="matrix(0.7071 0.7071 -0.7071 0.7071 23.2155 -9.7138)" class="st0" width="33.06" height="31.36"/>
	<path class="st1" d="M31.84,21.74l-1.56-1.56c-0.21-0.21-0.49-0.32-0.78-0.32h-1.75V17.1c0-0.91-0.74-1.66-1.66-1.66h-5.52
		c-0.91,0-1.66,0.74-1.66,1.66v2.76h-1.75c-0.29,0-0.57,0.12-0.78,0.32l-1.56,1.56c-0.21,0.21-0.32,0.49-0.32,0.78v2.85h4.41v-0.55
		c0-0.3,0.25-0.55,0.55-0.55h1.1c0.3,0,0.55,0.25,0.55,0.55v0.55h4.41v-0.55c0-0.3,0.25-0.55,0.55-0.55h1.1
		c0.3,0,0.55,0.25,0.55,0.55v0.55h4.41v-2.85C32.16,22.23,32.05,21.95,31.84,21.74z M25.54,19.86h-4.41v-2.21h4.41V19.86z
		 M27.75,27.03c0,0.3-0.25,0.55-0.55,0.55h-1.1c-0.3,0-0.55-0.25-0.55-0.55v-0.55h-4.41v0.55c0,0.3-0.25,0.55-0.55,0.55h-1.1
		c-0.3,0-0.55-0.25-0.55-0.55v-0.55H14.5v3.31c0,0.61,0.49,1.1,1.1,1.1h15.45c0.61,0,1.1-0.49,1.1-1.1v-3.31h-4.41V27.03z"/>
</g>
</svg>
