<?xml version="1.0" encoding="utf-8"?>
<!-- Generator: Adobe Illustrator 23.1.0, SVG Export Plug-In . SVG Version: 6.00 Build 0)  -->
<svg version="1.1" id="Camada_1" xmlns="http://www.w3.org/2000/svg" xmlns:xlink="http://www.w3.org/1999/xlink" x="0px" y="0px"
	 viewBox="0 0 323 121" style="enable-background:new 0 0 323 121;" xml:space="preserve">
<style type="text/css">
	.st0{fill:#2E3C8A;}
	.st1{fill:#86C1D4;}
	.st2{fill:#FFFFFF;}
	.st3{fill:#666666;}
</style>
<circle class="st0" cx="60.5" cy="59.43" r="56.05"/>
<g>
	<path class="st1" d="M41.72,72.23c0,0,1.35,4.73,4.5,6.53h-8.1C38.12,78.75,38.68,74.48,41.72,72.23z"/>
	<path class="st2" d="M107.22,45.95c-0.34-0.76-2.37-1.01-2.97-1.59c-1.73-1.66-2.32-2.03-9.1-2.97c0,0-0.93-4.84-3.12-4.73
		c-1.3,0.06-1.69,0.17-2.19,4.73c0,0-2.94-2.55-6.79-3.64c-15.66-4.46-62.42-7.33-64.79,42.47h17.05c0,0,0-11.99,19.58-14.18
		c0,0-4.05,4.73-3.55,14.18h15.53c0,0,0.14-12.52,8.95-17.05c0,0-4.51,4.95-4.59,7.18c-0.1,2.83,0.21,6.21,3.29,9.87h16.5
		c0,0-11.69-6.69-7.53-18.79c1.4-4.08,6.85-6.25,10.9-5.92c3.23,0.27,9.28,0.4,12.15-8.04C106.54,47.47,107.39,46.33,107.22,45.95z
		 M99.06,46.79c-0.78,0-1.41-0.63-1.41-1.41c0-0.78,0.63-1.41,1.41-1.41c0.78,0,1.41,0.63,1.41,1.41
		C100.47,46.16,99.84,46.79,99.06,46.79z"/>
	<path class="st1" d="M51.22,66.6c0,0-15.58-4.39-24.69,13.61h8.78C35.31,80.22,35.48,69.71,51.22,66.6z"/>
	<path class="st1" d="M60.03,80.22c8.44-34.83,41.03-25.75,41.03-25.75s-1.34,1.53-7.33,1.02c0,0-3.82,0.25-5.93,1.47
		c-2.32,1.34-4.82,2.89-5.19,9.25c-0.24,4.1,1.91,9.92,8.41,14.01h-16.5c0,0-4.72-5.34-3.18-10.48c0.54-1.81,1.73-3.44,4.11-6.37
		c0,0-7.79,3.44-8.58,16.85L60.03,80.22z"/>
</g>
<g>
	<path class="st0" d="M150.47,33.51c1.56,0.67,2.92,1.59,4.1,2.75c1.18,1.16,2.1,2.52,2.78,4.07c0.67,1.56,1.01,3.22,1.01,4.98
		s-0.34,3.42-1.01,4.98c-0.67,1.56-1.6,2.91-2.78,4.05c-1.18,1.14-2.54,2.05-4.1,2.72c-1.56,0.67-3.22,1.01-4.98,1.01h-4.05
		l-3.94-7.26h7.99c0.76,0,1.48-0.15,2.15-0.44c0.67-0.29,1.25-0.71,1.74-1.25c0.48-0.54,0.87-1.18,1.17-1.92
		c0.29-0.74,0.44-1.56,0.44-2.46c0-0.76-0.15-1.5-0.44-2.21c-0.29-0.71-0.68-1.34-1.17-1.89c-0.48-0.55-1.06-1-1.74-1.35
		c-0.67-0.35-1.39-0.52-2.15-0.52h-9.18v30.04h-7.21V32.5h16.4C147.25,32.5,148.91,32.84,150.47,33.51z"/>
	<path class="st0" d="M172.83,42.46c1.87,0,3.61,0.36,5.24,1.06c1.63,0.71,3.04,1.67,4.25,2.88c1.21,1.21,2.17,2.63,2.88,4.25
		c0.71,1.63,1.06,3.35,1.06,5.19c0,1.83-0.35,3.56-1.06,5.19c-0.71,1.63-1.67,3.04-2.88,4.25c-1.21,1.21-2.63,2.17-4.25,2.88
		c-1.63,0.71-3.37,1.06-5.24,1.06c-1.87,0-3.62-0.36-5.24-1.06c-1.63-0.71-3.04-1.67-4.25-2.88c-1.21-1.21-2.17-2.63-2.88-4.25
		c-0.71-1.63-1.06-3.35-1.06-5.19c0-1.83,0.35-3.56,1.06-5.19c0.71-1.63,1.67-3.04,2.88-4.25c1.21-1.21,2.63-2.17,4.25-2.88
		C169.21,42.82,170.96,42.46,172.83,42.46z M172.83,63.06c0.86,0,1.67-0.19,2.41-0.57c0.74-0.38,1.4-0.91,1.97-1.58
		c0.57-0.67,1.02-1.45,1.35-2.33c0.33-0.88,0.49-1.84,0.49-2.88c0-0.97-0.16-1.89-0.49-2.78c-0.33-0.88-0.78-1.64-1.35-2.28
		c-0.57-0.64-1.23-1.15-1.97-1.53c-0.74-0.38-1.55-0.57-2.41-0.57c-0.87,0-1.68,0.19-2.44,0.57c-0.76,0.38-1.43,0.89-2,1.53
		c-0.57,0.64-1.02,1.4-1.35,2.28c-0.33,0.88-0.49,1.81-0.49,2.78c0,1.04,0.16,2,0.49,2.88c0.33,0.88,0.78,1.66,1.35,2.33
		c0.57,0.67,1.24,1.2,2,1.58C171.15,62.87,171.96,63.06,172.83,63.06z"/>
	<path class="st0" d="M195.76,32.5v36.32h-6.9l0.05-36.32H195.76z"/>
	<path class="st0" d="M226.74,42.88v25.94h-6.8v-13c0-1-0.19-1.94-0.57-2.81c-0.38-0.87-0.91-1.63-1.58-2.29
		c-0.67-0.66-1.45-1.17-2.33-1.53c-0.88-0.36-1.81-0.55-2.78-0.55c-1,0-1.94,0.19-2.8,0.57c-0.86,0.38-1.63,0.89-2.31,1.54
		c-0.67,0.64-1.2,1.41-1.58,2.29c-0.38,0.89-0.57,1.83-0.57,2.84c0,0.97,0.19,1.89,0.57,2.76c0.38,0.87,0.91,1.63,1.58,2.29
		c0.67,0.66,1.44,1.18,2.31,1.56c0.86,0.38,1.8,0.57,2.8,0.57c1.07,0,1.99-0.19,2.75-0.57h0.05v0.1l2.59,4.62l-0.05,0.05
		c-1.7,1.32-3.79,1.97-6.28,1.97c-1.83,0-3.56-0.35-5.19-1.04c-1.63-0.69-3.04-1.64-4.25-2.85c-1.21-1.21-2.17-2.63-2.88-4.25
		c-0.71-1.63-1.06-3.36-1.06-5.19c0-1.87,0.35-3.61,1.06-5.24c0.71-1.63,1.67-3.04,2.88-4.25c1.21-1.21,2.63-2.17,4.25-2.88
		c1.63-0.71,3.35-1.06,5.19-1.06c1.8,0,3.37,0.33,4.72,1s2.51,1.64,3.48,2.91v-3.49H226.74z"/>
	<path class="st0" d="M251.54,43.91l-0.62,1.04l-2.65,4.72l-0.05-0.05c-1.14-0.66-2.37-0.99-3.68-0.99c-0.9,0-1.75,0.15-2.54,0.44
		c-0.79,0.29-1.5,0.71-2.13,1.25c-0.62,0.54-1.15,1.17-1.58,1.89c-0.43,0.73-0.72,1.5-0.86,2.33v14.27h-7.06V42.88h7.06v3.37
		c1.83-2.52,4.51-3.79,8.04-3.79c2.08,0,4.08,0.48,6.02,1.45H251.54z"/>
	<path class="st0" d="M253.04,32.5h6.9v6.07h-6.9V32.5z M253.04,68.82V42.88h6.9v25.94H253.04z"/>
	<path class="st0" d="M262.59,62.64h25.84v6.17h-25.89L262.59,62.64z M289.21,42.88v6.74l-0.05-0.05l-14.74,12.35L267,58.75
		l12.19-10.27h-15.88v-5.6H289.21z"/>
	<path class="st0" d="M303.27,42.46c1.83,0,3.56,0.36,5.19,1.06c1.63,0.71,3.04,1.67,4.25,2.88c1.21,1.21,2.17,2.63,2.88,4.25
		c0.71,1.63,1.06,3.37,1.06,5.24c0,1-0.1,1.97-0.31,2.91l-0.05,0.1h-13.18l-3.32-5.29h9.86c-0.49-1.45-1.29-2.65-2.41-3.58
		c-1.12-0.93-2.45-1.4-3.97-1.4c-0.93,0-1.82,0.19-2.65,0.57s-1.55,0.89-2.15,1.52c-0.61,0.64-1.08,1.4-1.43,2.27
		c-0.35,0.88-0.52,1.83-0.52,2.87c0,0.79,0.16,1.61,0.47,2.46s0.76,1.61,1.35,2.3c0.59,0.69,1.3,1.27,2.13,1.73
		c0.83,0.46,1.76,0.7,2.8,0.7c0.93,0,1.79-0.13,2.57-0.39c0.78-0.26,1.51-0.84,2.21-1.74l0.05-0.05l0.1,0.05l6.02,2.65l-0.1,0.11
		c-1.25,1.74-2.83,3.1-4.75,4.08c-1.92,0.98-3.95,1.46-6.1,1.46c-1.87,0-3.62-0.35-5.27-1.04c-1.64-0.69-3.07-1.64-4.28-2.85
		c-1.21-1.21-2.17-2.63-2.88-4.25c-0.71-1.63-1.06-3.36-1.06-5.19c0-1.87,0.35-3.61,1.06-5.24c0.71-1.63,1.67-3.04,2.88-4.25
		c1.21-1.21,2.64-2.17,4.28-2.88C299.64,42.82,301.4,42.46,303.27,42.46z"/>
</g>
<g>
	<path class="st3" d="M144.02,78.63v12.99h-3.4v-6.51c0-0.5-0.1-0.97-0.29-1.41c-0.19-0.43-0.45-0.82-0.79-1.15
		c-0.34-0.33-0.73-0.59-1.17-0.77c-0.44-0.18-0.91-0.27-1.39-0.27c-0.5,0-0.97,0.1-1.4,0.29c-0.43,0.19-0.82,0.45-1.16,0.77
		c-0.34,0.32-0.6,0.7-0.79,1.15c-0.19,0.44-0.29,0.92-0.29,1.42c0,0.49,0.1,0.95,0.29,1.38c0.19,0.43,0.45,0.82,0.79,1.15
		c0.34,0.33,0.72,0.59,1.16,0.78c0.43,0.19,0.9,0.29,1.4,0.29c0.54,0,1-0.09,1.38-0.29h0.03v0.05l1.3,2.31l-0.03,0.03
		c-0.85,0.66-1.9,0.99-3.14,0.99c-0.92,0-1.78-0.17-2.6-0.52c-0.81-0.35-1.52-0.82-2.13-1.43c-0.61-0.61-1.09-1.32-1.44-2.13
		c-0.35-0.81-0.53-1.68-0.53-2.6c0-0.93,0.18-1.81,0.53-2.62s0.84-1.52,1.44-2.13c0.61-0.61,1.32-1.09,2.13-1.44
		c0.81-0.35,1.68-0.53,2.6-0.53c0.9,0,1.69,0.17,2.36,0.5c0.68,0.33,1.25,0.82,1.74,1.46v-1.75H144.02z"/>
	<path class="st3" d="M156.44,79.15l-0.31,0.52l-1.32,2.36l-0.03-0.03c-0.57-0.33-1.19-0.49-1.84-0.49c-0.45,0-0.87,0.07-1.27,0.22
		c-0.4,0.15-0.75,0.35-1.06,0.62c-0.31,0.27-0.58,0.58-0.79,0.95c-0.22,0.36-0.36,0.75-0.43,1.17v7.14h-3.53V78.63h3.53v1.69
		c0.92-1.26,2.26-1.9,4.03-1.9c1.04,0,2.04,0.24,3.01,0.73H156.44z"/>
	<path class="st3" d="M172.15,86.66l2.8,1.84l-0.03,0.03c-0.61,1.04-1.42,1.85-2.45,2.44c-1.03,0.59-2.14,0.88-3.34,0.88
		c-0.94,0-1.81-0.18-2.62-0.53c-0.81-0.35-1.52-0.83-2.13-1.44c-0.61-0.61-1.09-1.32-1.44-2.13c-0.35-0.81-0.53-1.68-0.53-2.6
		s0.18-1.78,0.53-2.6c0.35-0.81,0.84-1.52,1.44-2.13s1.32-1.09,2.13-1.44c0.81-0.35,1.69-0.53,2.62-0.53c1.19,0,2.31,0.29,3.34,0.88
		c1.03,0.59,1.85,1.4,2.45,2.44l0.03,0.03l-2.83,1.84l-0.03-0.03c-0.28-0.64-0.68-1.16-1.21-1.56c-0.53-0.4-1.11-0.6-1.75-0.6
		c-0.47,0-0.91,0.1-1.31,0.3c-0.41,0.2-0.76,0.47-1.05,0.81c-0.29,0.34-0.53,0.73-0.7,1.17c-0.17,0.44-0.26,0.91-0.26,1.42
		s0.09,0.97,0.26,1.4s0.41,0.81,0.7,1.13c0.29,0.32,0.64,0.57,1.05,0.75c0.41,0.18,0.84,0.27,1.31,0.27c0.64,0,1.22-0.18,1.75-0.53
		c0.53-0.35,0.93-0.85,1.21-1.49l0.03-0.05L172.15,86.66z"/>
	<path class="st3" d="M182.46,78.42c0.94,0,1.81,0.18,2.62,0.53c0.81,0.36,1.52,0.84,2.13,1.44c0.61,0.61,1.09,1.32,1.44,2.13
		s0.53,1.68,0.53,2.6c0,0.92-0.18,1.78-0.53,2.6s-0.84,1.52-1.44,2.13c-0.61,0.61-1.32,1.09-2.13,1.44
		c-0.81,0.35-1.69,0.53-2.62,0.53s-1.81-0.18-2.62-0.53c-0.81-0.36-1.52-0.84-2.13-1.44c-0.61-0.61-1.09-1.32-1.44-2.13
		s-0.53-1.68-0.53-2.6c0-0.92,0.18-1.78,0.53-2.6s0.84-1.52,1.44-2.13c0.61-0.61,1.32-1.09,2.13-1.44
		C180.65,78.6,181.52,78.42,182.46,78.42z M182.46,88.73c0.43,0,0.83-0.09,1.21-0.29c0.37-0.19,0.7-0.45,0.99-0.79
		c0.29-0.34,0.51-0.73,0.68-1.17c0.16-0.44,0.25-0.92,0.25-1.44c0-0.49-0.08-0.95-0.25-1.39s-0.39-0.82-0.68-1.14
		s-0.61-0.58-0.99-0.77c-0.37-0.19-0.77-0.29-1.21-0.29c-0.43,0-0.84,0.09-1.22,0.29c-0.38,0.19-0.71,0.45-1,0.77
		s-0.51,0.7-0.68,1.14s-0.25,0.9-0.25,1.39c0,0.52,0.08,1,0.25,1.44c0.16,0.44,0.39,0.83,0.68,1.17c0.29,0.34,0.62,0.6,1,0.79
		C181.62,88.64,182.02,88.73,182.46,88.73z"/>
	<path class="st3" d="M190.28,78.63h3.53v12.99h-3.53V78.63z M202.27,80.14c0.43,0.54,0.74,1.21,0.94,2.03
		c0.19,0.81,0.29,1.82,0.29,3.01v6.44h-3.53v-6.46c0-0.49-0.01-0.95-0.04-1.39c-0.03-0.44-0.12-0.83-0.27-1.17
		c-0.16-0.34-0.41-0.6-0.75-0.79c-0.35-0.19-0.84-0.29-1.48-0.29c-0.61,0-1.17,0.13-1.69,0.39v0.03l-0.03-0.03l-1.27-2.24l0.03-0.03
		c0.9-0.81,2.03-1.21,3.38-1.21C199.91,78.42,201.39,78.99,202.27,80.14z"/>
	<path class="st3" d="M218.9,73.44v18.18h-3.48l0.03-6.52c0-0.48-0.1-0.94-0.3-1.38c-0.2-0.43-0.46-0.81-0.78-1.13
		c-0.32-0.32-0.7-0.57-1.14-0.75c-0.44-0.18-0.91-0.27-1.42-0.27c-0.5,0-0.97,0.09-1.4,0.27c-0.43,0.18-0.81,0.44-1.13,0.77
		c-0.32,0.33-0.58,0.71-0.77,1.14c-0.19,0.43-0.29,0.9-0.29,1.4s0.09,0.97,0.29,1.4c0.19,0.43,0.45,0.81,0.77,1.13
		c0.32,0.32,0.7,0.58,1.13,0.77c0.43,0.19,0.9,0.29,1.4,0.29c0.24,0,0.48-0.02,0.73-0.05c0.24-0.04,0.47-0.1,0.68-0.21h0.03h0.03
		l1.27,2.34l-0.03,0.03c-0.85,0.66-1.89,0.99-3.12,0.99c-0.94,0-1.81-0.17-2.62-0.52c-0.81-0.35-1.52-0.82-2.13-1.43
		c-0.61-0.61-1.09-1.32-1.44-2.13c-0.35-0.81-0.53-1.68-0.53-2.6s0.18-1.78,0.53-2.6c0.35-0.81,0.84-1.52,1.44-2.13
		s1.32-1.08,2.13-1.43c0.81-0.35,1.69-0.52,2.62-0.52c1.77,0,3.12,0.66,4.05,1.97v-7.01H218.9z"/>
	<path class="st3" d="M220.43,73.44h3.45v3.04h-3.45V73.44z M220.43,91.62V78.63h3.45v12.99H220.43z"/>
	<path class="st3" d="M234.92,86.66l2.8,1.84l-0.03,0.03c-0.61,1.04-1.42,1.85-2.45,2.44c-1.03,0.59-2.14,0.88-3.34,0.88
		c-0.94,0-1.81-0.18-2.62-0.53c-0.81-0.35-1.52-0.83-2.13-1.44c-0.61-0.61-1.09-1.32-1.44-2.13c-0.35-0.81-0.53-1.68-0.53-2.6
		s0.18-1.78,0.53-2.6c0.35-0.81,0.84-1.52,1.44-2.13s1.32-1.09,2.13-1.44c0.81-0.35,1.69-0.53,2.62-0.53c1.19,0,2.31,0.29,3.34,0.88
		s1.85,1.4,2.45,2.44l0.03,0.03l-2.83,1.84l-0.03-0.03c-0.28-0.64-0.68-1.16-1.21-1.56c-0.53-0.4-1.11-0.6-1.75-0.6
		c-0.47,0-0.91,0.1-1.31,0.3c-0.41,0.2-0.76,0.47-1.05,0.81c-0.29,0.34-0.53,0.73-0.7,1.17c-0.17,0.44-0.26,0.91-0.26,1.42
		s0.09,0.97,0.26,1.4c0.17,0.43,0.41,0.81,0.7,1.13c0.29,0.32,0.64,0.57,1.05,0.75c0.41,0.18,0.84,0.27,1.31,0.27
		c0.64,0,1.22-0.18,1.75-0.53c0.53-0.35,0.93-0.85,1.21-1.49l0.03-0.05L234.92,86.66z"/>
	<path class="st3" d="M238.76,73.44h3.45v3.04h-3.45V73.44z M238.76,91.62V78.63h3.45v12.99H238.76z"/>
	<path class="st3" d="M250.24,78.42c0.93,0,1.81,0.18,2.62,0.53c0.81,0.36,1.52,0.84,2.13,1.44c0.61,0.61,1.09,1.32,1.44,2.13
		c0.35,0.81,0.53,1.68,0.53,2.6c0,0.92-0.18,1.78-0.53,2.6c-0.36,0.81-0.84,1.52-1.44,2.13c-0.61,0.61-1.32,1.09-2.13,1.44
		c-0.81,0.35-1.69,0.53-2.62,0.53c-0.94,0-1.81-0.18-2.62-0.53c-0.81-0.36-1.52-0.84-2.13-1.44c-0.61-0.61-1.09-1.32-1.44-2.13
		c-0.36-0.81-0.53-1.68-0.53-2.6c0-0.92,0.18-1.78,0.53-2.6c0.35-0.81,0.83-1.52,1.44-2.13c0.61-0.61,1.32-1.09,2.13-1.44
		C248.43,78.6,249.31,78.42,250.24,78.42z M250.24,88.73c0.43,0,0.83-0.09,1.21-0.29c0.37-0.19,0.7-0.45,0.99-0.79
		c0.29-0.34,0.51-0.73,0.68-1.17c0.16-0.44,0.25-0.92,0.25-1.44c0-0.49-0.08-0.95-0.25-1.39c-0.17-0.44-0.39-0.82-0.68-1.14
		c-0.29-0.32-0.61-0.58-0.99-0.77c-0.37-0.19-0.78-0.29-1.21-0.29c-0.43,0-0.84,0.09-1.22,0.29s-0.71,0.45-1,0.77
		s-0.51,0.7-0.67,1.14c-0.17,0.44-0.25,0.9-0.25,1.39c0,0.52,0.08,1,0.25,1.44c0.16,0.44,0.39,0.83,0.67,1.17
		c0.29,0.34,0.62,0.6,1,0.79C249.4,88.64,249.81,88.73,250.24,88.73z"/>
	<path class="st3" d="M258.06,78.63h3.53v12.99h-3.53V78.63z M270.06,80.14c0.43,0.54,0.75,1.21,0.94,2.03
		c0.19,0.81,0.29,1.82,0.29,3.01v6.44h-3.53v-6.46c0-0.49-0.01-0.95-0.04-1.39c-0.03-0.44-0.12-0.83-0.27-1.17
		c-0.16-0.34-0.41-0.6-0.75-0.79c-0.35-0.19-0.84-0.29-1.48-0.29c-0.61,0-1.17,0.13-1.69,0.39v0.03l-0.03-0.03l-1.27-2.24l0.03-0.03
		c0.9-0.81,2.03-1.21,3.38-1.21C267.69,78.42,269.17,78.99,270.06,80.14z"/>
	<path class="st3" d="M286.65,78.63v12.99h-3.4v-6.51c0-0.5-0.09-0.97-0.29-1.41c-0.19-0.43-0.46-0.82-0.79-1.15
		c-0.34-0.33-0.73-0.59-1.17-0.77c-0.44-0.18-0.91-0.27-1.39-0.27c-0.5,0-0.97,0.1-1.4,0.29c-0.43,0.19-0.82,0.45-1.16,0.77
		c-0.34,0.32-0.6,0.7-0.79,1.15c-0.19,0.44-0.29,0.92-0.29,1.42c0,0.49,0.09,0.95,0.29,1.38c0.19,0.43,0.46,0.82,0.79,1.15
		c0.34,0.33,0.72,0.59,1.16,0.78c0.43,0.19,0.9,0.29,1.4,0.29c0.54,0,1-0.09,1.38-0.29h0.03v0.05l1.3,2.31l-0.03,0.03
		c-0.85,0.66-1.9,0.99-3.14,0.99c-0.92,0-1.78-0.17-2.6-0.52c-0.81-0.35-1.52-0.82-2.13-1.43c-0.61-0.61-1.09-1.32-1.44-2.13
		c-0.36-0.81-0.53-1.68-0.53-2.6c0-0.93,0.18-1.81,0.53-2.62c0.35-0.81,0.83-1.52,1.44-2.13c0.61-0.61,1.32-1.09,2.13-1.44
		c0.81-0.35,1.68-0.53,2.6-0.53c0.9,0,1.69,0.17,2.36,0.5c0.68,0.33,1.26,0.82,1.74,1.46v-1.75H286.65z"/>
	<path class="st3" d="M302.44,73.44v18.18h-3.48l0.03-6.52c0-0.48-0.1-0.94-0.3-1.38c-0.2-0.43-0.46-0.81-0.78-1.13
		c-0.32-0.32-0.7-0.57-1.14-0.75s-0.91-0.27-1.42-0.27s-0.97,0.09-1.4,0.27s-0.81,0.44-1.13,0.77s-0.58,0.71-0.77,1.14
		s-0.29,0.9-0.29,1.4s0.1,0.97,0.29,1.4s0.45,0.81,0.77,1.13s0.7,0.58,1.13,0.77c0.43,0.19,0.9,0.29,1.4,0.29
		c0.24,0,0.49-0.02,0.73-0.05s0.47-0.1,0.67-0.21h0.03h0.03l1.27,2.34l-0.03,0.03c-0.85,0.66-1.89,0.99-3.12,0.99
		c-0.94,0-1.81-0.17-2.62-0.52c-0.81-0.35-1.52-0.82-2.13-1.43c-0.61-0.61-1.09-1.32-1.44-2.13c-0.36-0.81-0.53-1.68-0.53-2.6
		s0.18-1.78,0.53-2.6c0.35-0.81,0.83-1.52,1.44-2.13c0.61-0.61,1.32-1.08,2.13-1.43c0.81-0.35,1.69-0.52,2.62-0.52
		c1.77,0,3.12,0.66,4.05,1.97v-7.01H302.44z"/>
	<path class="st3" d="M310.44,78.42c0.93,0,1.81,0.18,2.62,0.53c0.81,0.36,1.52,0.84,2.13,1.44c0.61,0.61,1.09,1.32,1.44,2.13
		c0.35,0.81,0.53,1.68,0.53,2.6c0,0.92-0.18,1.78-0.53,2.6c-0.36,0.81-0.84,1.52-1.44,2.13c-0.61,0.61-1.32,1.09-2.13,1.44
		c-0.81,0.35-1.69,0.53-2.62,0.53c-0.94,0-1.81-0.18-2.62-0.53c-0.81-0.36-1.52-0.84-2.13-1.44c-0.61-0.61-1.09-1.32-1.44-2.13
		c-0.36-0.81-0.53-1.68-0.53-2.6c0-0.92,0.18-1.78,0.53-2.6c0.35-0.81,0.83-1.52,1.44-2.13c0.61-0.61,1.32-1.09,2.13-1.44
		C308.63,78.6,309.51,78.42,310.44,78.42z M310.44,88.73c0.43,0,0.83-0.09,1.21-0.29c0.37-0.19,0.7-0.45,0.99-0.79
		c0.29-0.34,0.51-0.73,0.68-1.17c0.16-0.44,0.25-0.92,0.25-1.44c0-0.49-0.08-0.95-0.25-1.39c-0.17-0.44-0.39-0.82-0.68-1.14
		c-0.29-0.32-0.61-0.58-0.99-0.77c-0.37-0.19-0.78-0.29-1.21-0.29c-0.43,0-0.84,0.09-1.22,0.29s-0.71,0.45-1,0.77
		s-0.51,0.7-0.67,1.14c-0.17,0.44-0.25,0.9-0.25,1.39c0,0.52,0.08,1,0.25,1.44c0.16,0.44,0.39,0.83,0.67,1.17
		c0.29,0.34,0.62,0.6,1,0.79C309.6,88.64,310.01,88.73,310.44,88.73z"/>
</g>
</svg>
