<?xml version="1.0" encoding="utf-8"?>
<!-- Generator: Adobe Illustrator 23.1.0, SVG Export Plug-In . SVG Version: 6.00 Build 0)  -->
<svg version="1.1" id="Camada_1" xmlns="http://www.w3.org/2000/svg" xmlns:xlink="http://www.w3.org/1999/xlink" x="0px" y="0px"
	 viewBox="0 0 326 127" style="enable-background:new 0 0 326 127;" xml:space="preserve">
<style type="text/css">
	.st0{fill:none;stroke:#FFFFFF;stroke-width:2;stroke-miterlimit:10;}
	.st1{fill:#FFFFFF;}
	.st2{font-family:'Quantify';}
	.st3{font-size:51.8852px;}
	.st4{fill:#63C2D6;}
	.st5{font-size:25.9712px;}
</style>
<g>
	<circle class="st0" cx="61.4" cy="63.3" r="56"/>
	<text transform="matrix(1 0 0 1 128.1754 72.734)" class="st1 st2 st3">Polarize</text>
	<text transform="matrix(1 0 0 1 130.1984 95.5328)" class="st4 st2 st5">ar condicionado</text>
	<g>
		<path class="st4" d="M42.6,76.6c0,0,1.4,4.7,4.5,6.5H39C39,83.1,39.6,78.8,42.6,76.6z"/>
		<path class="st1" d="M108.1,50.3c-0.3-0.8-2.4-1-3-1.6c-1.7-1.7-2.3-2-9.1-3c0,0-0.9-4.8-3.1-4.7c-1.3,0.1-1.7,0.2-2.2,4.7
			c0,0-2.9-2.5-6.8-3.6c-15.7-4.5-62.4-7.3-64.8,42.5h17c0,0,0-12,19.6-14.2c0,0-4.1,4.7-3.5,14.2h15.5c0,0,0.1-12.5,8.9-17
			c0,0-4.5,4.9-4.6,7.2c-0.1,2.8,0.2,6.2,3.3,9.9h16.5c0,0-11.7-6.7-7.5-18.8c1.4-4.1,6.9-6.3,10.9-5.9c3.2,0.3,9.3,0.4,12.2-8
			C107.4,51.8,108.3,50.7,108.1,50.3z M100,51.1c-0.8,0-1.4-0.6-1.4-1.4c0-0.8,0.6-1.4,1.4-1.4c0.8,0,1.4,0.6,1.4,1.4
			C101.4,50.5,100.7,51.1,100,51.1z"/>
		<path class="st4" d="M52.1,71c0,0-15.6-4.4-24.7,13.6h8.8C36.2,84.6,36.4,74.1,52.1,71z"/>
		<path class="st4" d="M60.9,84.6c8.4-34.8,41-25.8,41-25.8s-1.3,1.5-7.3,1c0,0-3.8,0.3-5.9,1.5c-2.3,1.3-4.8,2.9-5.2,9.3
			c-0.2,4.1,1.9,9.9,8.4,14H75.4c0,0-4.7-5.3-3.2-10.5c0.5-1.8,1.7-3.4,4.1-6.4c0,0-7.8,3.4-8.6,16.9L60.9,84.6z"/>
	</g>
</g>
</svg>
